<svg version="1.1" id="Layer_1" xmlns="http://www.w3.org/2000/svg" xmlns:xlink="http://www.w3.org/1999/xlink" x="0px" y="0px"
	 width="280.002px" height="40px" viewBox="0 0 280.002 40" enable-background="new 0 0 280.002 40" xml:space="preserve">
	 <g fill="none" stroke="#fff" stroke-miterlimit="10">
		<path d="M61.129,21.696c-0.519-0.998-2.311-1.084-2.592,0.051"/>
		<circle cx="63.629" cy="22.476" r="2.5"/>
		<path d="M55.777,16.234c-2.24,0.378-2.17,4.154-2.003,5.101"/>
		<path d="M63.351,16.234c2.777,0.546,2.163,4.192,2.312,4.791"/>
		<circle cx="56.037" cy="22.476" r="2.5"/>
		<ellipse transform="matrix(0.7132 -0.701 0.701 0.7132 40.2554 133.5214)" cx="183.299" cy="17.566" rx="1.494" ry="1.398"/>
		<path d="M187.673,13.262c0.746,4.56-1.256,6.452-2.232,7.495
			c-0.557,0.592-3.771,2.396-4.713,2.886c-0.059,2.06-0.293,3.999-1.641,4.92c-0.141-0.293-0.154-2.125-2.346-4.284"/>
		<path d="M187.81,13.398c-4.549-0.825-6.475,1.146-7.533,2.105
			c-0.602,0.545-2.459,3.73-2.965,4.664c-2.062,0.021-4.004,0.226-4.949,1.557c0.293,0.145,2.373,0.441,4.494,2.671"/>
		<path d="M174.608,24.831c-0.891,0.875-2.182,1.939-1.496,2.637
			c0.781,0.795,1.889-0.512,2.752-1.359"/>
		<path d="M20.242,21.098c-0.843,2.279-5,3.422-6.482,2.973
		c-3.919-1.193-4.721-4.078-4.347-3.957c0.726,0.236,2.114,0.137,3.156-0.568c1.924-1.3,2.182-4.339,5.204-4.004
		c1.865,0.207,1.487,1.041,2.578,1.239"/>
		<path d="M20.242,21.098c0.843,2.279,5.017,3.422,6.499,2.971
		c3.919-1.191,4.721-4.077,4.347-3.955c-0.726,0.236-2.114,0.137-3.156-0.568c-1.731-1.17-2.219-4.383-5.204-4.005
		c-1.965,0.249-1.466,1.037-2.578,1.239"/>
	</g>
		<g fill="#fff" stroke="#fff" stroke-width="0.25" stroke-miterlimit="10">
		<path d="M92.311,27.425v-1.647
			c0-1.025,0.645-2.028,1.692-2.371l3.711-1.274v-1.414c-1.248-0.777-2.076-2.251-2.076-3.941c0-2.494,1.91-4.524,4.22-4.524
			s4.268,2.029,4.268,4.524c0,1.592-1.01,2.99-1.84,3.796v1.562l3.688,1.275c1.061,0.344,1.715,1.264,1.715,2.283v1.648l-15.376,0.086
			L92.311,27.425z M99.888,12.835c-1.691,0-3.109,1.323-3.462,3.085c0.36,0.143,0.749,0.215,1.142,0.21
			c1.035,0,2.264-0.562,2.631-1.205l0.271-0.475l0.291,0.464c0.678,1.083,1.395,1.426,2.551,1.219
			c0.025-0.004,0.049-0.003,0.074-0.006C103.108,14.263,101.647,12.834,99.888,12.835L99.888,12.835z M103.438,16.85
			c0-0.022-0.004,0.008-0.004,0.008h-0.004c-0.246,0-0.479-0.009-0.701-0.009c-0.926,0-1.652-0.419-2.266-1.227
			c-0.637,0.649-1.82,1.11-2.896,1.11c-0.416,0-0.827-0.067-1.216-0.199c-0.005,0.083-0.012,0.162-0.012,0.246
			c0,2.174,1.592,3.976,3.551,3.976C101.847,20.757,103.438,19.024,103.438,16.85L103.438,16.85z M106.856,25.69
			c0-0.762-0.496-1.475-1.295-1.735l-4.107-1.419v-1.593c-0.416,0.229-0.986,0.356-1.564,0.356c-0.494,0-0.93-0.098-1.344-0.27v1.506
			l-4.132,1.418c-0.798,0.26-1.271,1.045-1.271,1.822v0.9l13.715-0.086v-0.9H106.856z"/>
		<path d="M144.719,19.239v0.712h0.475
			c1.246,0,2.148,0.869,2.148,2.068c0,1.201-0.902,2.072-2.148,2.072h-0.475v1.973c0,0.894-0.697,1.566-1.623,1.566h-5.773
			c-0.908,0-1.623-0.688-1.623-1.566v-6.823c0-0.166,0.141-0.3,0.312-0.3h0.02l-0.824-1.587c-0.008-0.016-0.012-0.035-0.016-0.052
			c-0.004-0.012-0.01-0.023-0.012-0.036c0-0.002-0.002-0.005-0.004-0.009l-0.262-2.022c-0.014-0.113,0.039-0.225,0.137-0.289
			c0.1-0.062,0.227-0.066,0.328-0.01l1.836,1.011l0.008,0.006c0.039,0.022,0.072,0.053,0.1,0.089c0.004,0.006,0.004,0.014,0.008,0.022
			c0.002,0.004,0.008,0.006,0.01,0.009l1.488,2.867h0.02v-6.27c0-0.167,0.141-0.301,0.312-0.301h3.148
			c0.172,0,0.311,0.135,0.311,0.301v5.815l1.355-2.369c-0.121-0.114-0.217-0.248-0.281-0.396c-0.141-0.318-0.131-0.687,0.021-1.036
			c0.08-0.183,0.215-0.345,0.355-0.517c0.377-0.46,0.592-0.769,0.236-1.292c-0.072-0.104-0.068-0.237,0.004-0.338
			s0.205-0.148,0.33-0.119c1.488,0.347,2.027,1.622,1.898,2.658c-0.1,0.812-0.59,1.376-1.238,1.472l-0.943,2.393h0.049
			c0.172,0,0.311,0.135,0.311,0.3L144.719,19.239z M144.719,23.488h0.475c0.896,0,1.523-0.602,1.523-1.469
			c0-0.863-0.627-1.467-1.523-1.467h-0.475v2.938V23.488z M135.611,15.756l0.123,0.942l0.734-0.471l-0.854-0.47L135.611,15.756z
			 M136.939,16.647l-1.049,0.676l0.838,1.618h1.4L136.939,16.647L136.939,16.647z M140.734,15.907h1.264v-0.41h-0.738
			c-0.174,0-0.312-0.134-0.312-0.301c0-0.166,0.139-0.301,0.312-0.301h0.736v-0.407h-1.262c-0.174-0.001-0.314-0.137-0.312-0.303l0,0
			c0-0.167,0.139-0.302,0.312-0.302h1.262V12.97h-2.525v5.971h2.525v-0.915h-0.738c-0.172,0-0.312-0.135-0.312-0.302
			s0.141-0.301,0.312-0.301h0.738v-0.914h-1.264c-0.172,0-0.312-0.134-0.312-0.301C140.422,16.042,140.561,15.907,140.734,15.907
			L140.734,15.907z M142.309,19.541h-5.984v6.525c0,0.539,0.439,0.962,0.998,0.962h5.773c0.578,0,0.998-0.405,0.998-0.962v-6.525
			H142.309L142.309,19.541z M145.104,15.967c0.516,0,0.762-0.519,0.816-0.962c0.076-0.618-0.156-1.345-0.809-1.752
			c0.055,0.554-0.293,0.978-0.549,1.287c-0.115,0.14-0.223,0.271-0.27,0.379c-0.09,0.202-0.098,0.399-0.023,0.568
			c0.076,0.171,0.227,0.307,0.441,0.393C144.85,15.938,144.982,15.967,145.104,15.967L145.104,15.967z M144.654,16.492
			c-0.049-0.016-0.104-0.026-0.154-0.046l-1.424,2.495h0.615L144.654,16.492L144.654,16.492z"/>
	</g>
		<g fill="#FECF06">
			<path d="M226.669,14.593h-0.022h-11.435l0,0h-0.021c-0.566,0.021-1.024,0.457-1.067,1.023c0,0.022,0,0.043,0,0.065
	v8.711c0,0.587,0.479,1.066,1.067,1.089h11.498c0.589-0.022,1.067-0.501,1.067-1.089v-8.69v-0.021
	C227.734,15.094,227.256,14.615,226.669,14.593z M225.558,15.9c0.108,0,0.218,0.022,0.306,0.043
	c-0.022,0.043-0.066,0.087-0.109,0.131l-4.247,4.246c-0.326,0.327-0.828,0.327-1.154,0l-4.226-4.246
	c-0.043-0.043-0.087-0.087-0.109-0.131l0,0c0.089-0.021,0.197-0.043,0.284-0.043l0,0H225.558z M215.431,17.25L215.431,17.25
	l4.791,4.791c0.393,0.393,1.045,0.393,1.438,0l4.77-4.77l0,0v6.099c0,0.457-0.392,0.827-0.871,0.827h-9.256
	c-0.479,0-0.871-0.37-0.871-0.827V17.25L215.431,17.25z"/>
		</g>
		<defs>
					
			<rect id="SVGID_1_" x="246.901" y="8.79" transform="matrix(0.1631 0.9866 -0.9866 0.1631 236.6906 -237.5559)" width="22.938" height="23.894"/>
		</defs>
		<clipPath id="SVGID_2_">
			<use xlink:href="#SVGID_1_"  overflow="visible"/>
		</clipPath>
		<path clip-path="url(#SVGID_2_)" fill="#FBB040" d="M268.107,12.249c0.155,0.943,0.155,2.105-0.113,3.409
					c-0.585,2.906-2.082,6.157-4.285,9.233c-2.204,3.077-4.785,5.636-7.363,7.03c-2.296,1.349-4.37,1.691-5.47,0.905
					c-0.204-0.063-0.408-0.127-0.534-0.3c-0.987-0.709-2.182-1.479-2.399-2.8c-0.141-0.849,0.285-1.791,1.275-2.827
					c2.786-3.076,4.104-2.131,5.643-1.029l0.235,0.252c0.221,0.156,1.335,0.457,4.562-4.049c1.023-1.428,1.779-2.716,2.204-3.658
					c0.284-0.627,0.601-1.649,0.16-1.963l-0.329-0.237c-1.538-1.102-2.857-2.046-0.84-5.673c0.676-1.177,1.431-1.882,2.263-2.118
					c1.211-0.297,2.419,0.569,3.424,1.372c0.126,0.172,0.33,0.236,0.44,0.314C267.639,10.583,267.952,11.306,268.107,12.249
					L268.107,12.249z M248.729,29.791c0.154,0.943,1.128,1.557,2.007,2.188c0.205,0.062,0.33,0.236,0.534,0.298
					c0.77,0.552,2.656,0.239,4.59-0.952c2.484-1.379,4.986-3.827,7.095-6.889c2.125-2.967,3.623-6.217,4.238-8.936
					c0.411-2.199,0.192-4.101-0.575-4.651c-0.11-0.079-0.33-0.236-0.455-0.41c-0.879-0.629-1.885-1.432-2.717-1.198
					c-0.66,0.109-1.242,0.69-1.841,1.758c-1.732,2.999-0.854,3.628,0.67,4.636l0.33,0.236c0.659,0.472,0.72,1.431,0.09,2.891
					c-0.409,1.038-1.181,2.23-2.282,3.769c-2.676,3.736-4.485,5.101-5.601,4.219l-0.234-0.251c-1.617-0.991-2.496-1.622-4.793,0.89
					C248.965,28.299,248.604,29.036,248.729,29.791C248.712,29.697,248.712,29.697,248.729,29.791L248.729,29.791z"/>
</svg>
